<mxfile host="app.diagrams.net" agent="Mozilla/5.0 (Windows NT 10.0; Win64; x64; rv:132.0) Gecko/20100101 Firefox/132.0" version="24.8.4">
  <diagram name="Страница — 1" id="q-2OCVR1PzejMKwmJLIg">
    <mxGraphModel dx="2261" dy="1895" grid="1" gridSize="10" guides="1" tooltips="1" connect="1" arrows="1" fold="1" page="1" pageScale="1" pageWidth="827" pageHeight="1169" math="0" shadow="0">
      <root>
        <mxCell id="0" />
        <mxCell id="1" parent="0" />
        <mxCell id="gKRMEOs6aeMaTQ6uBLCG-2" value="&lt;i style=&quot;&quot;&gt;User&lt;/i&gt;" style="swimlane;fontStyle=1;align=center;verticalAlign=top;childLayout=stackLayout;horizontal=1;startSize=40;horizontalStack=0;resizeParent=1;resizeParentMax=0;resizeLast=0;collapsible=1;marginBottom=0;whiteSpace=wrap;html=1;" parent="1" vertex="1">
          <mxGeometry x="-185" y="-792" width="190" height="152" as="geometry" />
        </mxCell>
        <mxCell id="gKRMEOs6aeMaTQ6uBLCG-3" value="+ Name: String" style="text;strokeColor=none;fillColor=none;align=left;verticalAlign=top;spacingLeft=4;spacingRight=4;overflow=hidden;rotatable=0;points=[[0,0.5],[1,0.5]];portConstraint=eastwest;whiteSpace=wrap;html=1;" parent="gKRMEOs6aeMaTQ6uBLCG-2" vertex="1">
          <mxGeometry y="40" width="190" height="26" as="geometry" />
        </mxCell>
        <mxCell id="gKRMEOs6aeMaTQ6uBLCG-4" value="+ PhoneNumber: String" style="text;strokeColor=none;fillColor=none;align=left;verticalAlign=top;spacingLeft=4;spacingRight=4;overflow=hidden;rotatable=0;points=[[0,0.5],[1,0.5]];portConstraint=eastwest;whiteSpace=wrap;html=1;" parent="gKRMEOs6aeMaTQ6uBLCG-2" vertex="1">
          <mxGeometry y="66" width="190" height="26" as="geometry" />
        </mxCell>
        <mxCell id="gKRMEOs6aeMaTQ6uBLCG-5" value="+ Email: String" style="text;strokeColor=none;fillColor=none;align=left;verticalAlign=top;spacingLeft=4;spacingRight=4;overflow=hidden;rotatable=0;points=[[0,0.5],[1,0.5]];portConstraint=eastwest;whiteSpace=wrap;html=1;" parent="gKRMEOs6aeMaTQ6uBLCG-2" vertex="1">
          <mxGeometry y="92" width="190" height="26" as="geometry" />
        </mxCell>
        <mxCell id="gKRMEOs6aeMaTQ6uBLCG-6" value="" style="line;strokeWidth=1;fillColor=none;align=left;verticalAlign=middle;spacingTop=-1;spacingLeft=3;spacingRight=3;rotatable=0;labelPosition=right;points=[];portConstraint=eastwest;strokeColor=inherit;" parent="gKRMEOs6aeMaTQ6uBLCG-2" vertex="1">
          <mxGeometry y="118" width="190" height="8" as="geometry" />
        </mxCell>
        <mxCell id="gKRMEOs6aeMaTQ6uBLCG-7" value="+&amp;nbsp;&lt;code&gt;&lt;font face=&quot;Helvetica&quot;&gt;ShowProducts()&lt;/font&gt;&lt;/code&gt;: Product[*]" style="text;strokeColor=none;fillColor=none;align=left;verticalAlign=top;spacingLeft=4;spacingRight=4;overflow=hidden;rotatable=0;points=[[0,0.5],[1,0.5]];portConstraint=eastwest;whiteSpace=wrap;html=1;" parent="gKRMEOs6aeMaTQ6uBLCG-2" vertex="1">
          <mxGeometry y="126" width="190" height="26" as="geometry" />
        </mxCell>
        <mxCell id="gKRMEOs6aeMaTQ6uBLCG-8" value="Client" style="swimlane;fontStyle=1;align=center;verticalAlign=top;childLayout=stackLayout;horizontal=1;startSize=26;horizontalStack=0;resizeParent=1;resizeParentMax=0;resizeLast=0;collapsible=1;marginBottom=0;whiteSpace=wrap;html=1;" parent="1" vertex="1">
          <mxGeometry x="-380" y="-792" width="160" height="180" as="geometry" />
        </mxCell>
        <mxCell id="gKRMEOs6aeMaTQ6uBLCG-9" value="" style="line;strokeWidth=1;fillColor=none;align=left;verticalAlign=middle;spacingTop=-1;spacingLeft=3;spacingRight=3;rotatable=0;labelPosition=right;points=[];portConstraint=eastwest;strokeColor=inherit;" parent="gKRMEOs6aeMaTQ6uBLCG-8" vertex="1">
          <mxGeometry y="26" width="160" height="8" as="geometry" />
        </mxCell>
        <mxCell id="gKRMEOs6aeMaTQ6uBLCG-10" value="+ CreateOrder(product: Product[*], adress: String, delivery_time: Real): Order" style="text;strokeColor=none;fillColor=none;align=left;verticalAlign=top;spacingLeft=4;spacingRight=4;overflow=hidden;rotatable=0;points=[[0,0.5],[1,0.5]];portConstraint=eastwest;whiteSpace=wrap;html=1;" parent="gKRMEOs6aeMaTQ6uBLCG-8" vertex="1">
          <mxGeometry y="34" width="160" height="46" as="geometry" />
        </mxCell>
        <mxCell id="4rKCSRgkfoB-lTJc2s7A-1" value="+ CreateReview(Info: String, Stars: UnlimitedNatural): Review" style="text;strokeColor=none;fillColor=none;align=left;verticalAlign=top;spacingLeft=4;spacingRight=4;overflow=hidden;rotatable=0;points=[[0,0.5],[1,0.5]];portConstraint=eastwest;whiteSpace=wrap;html=1;" vertex="1" parent="gKRMEOs6aeMaTQ6uBLCG-8">
          <mxGeometry y="80" width="160" height="50" as="geometry" />
        </mxCell>
        <mxCell id="gKRMEOs6aeMaTQ6uBLCG-11" value="+&amp;nbsp;&lt;span lang=&quot;en&quot; class=&quot;HwtZe&quot;&gt;&lt;span class=&quot;jCAhz ChMk0b&quot;&gt;&lt;span class=&quot;ryNqvb&quot;&gt;SelectProducts&lt;/span&gt;&lt;/span&gt;&lt;/span&gt;(): Product[*]" style="text;strokeColor=none;fillColor=none;align=left;verticalAlign=top;spacingLeft=4;spacingRight=4;overflow=hidden;rotatable=0;points=[[0,0.5],[1,0.5]];portConstraint=eastwest;whiteSpace=wrap;html=1;" parent="gKRMEOs6aeMaTQ6uBLCG-8" vertex="1">
          <mxGeometry y="130" width="160" height="50" as="geometry" />
        </mxCell>
        <mxCell id="gKRMEOs6aeMaTQ6uBLCG-12" value="Order" style="swimlane;fontStyle=1;align=center;verticalAlign=top;childLayout=stackLayout;horizontal=1;startSize=26;horizontalStack=0;resizeParent=1;resizeParentMax=0;resizeLast=0;collapsible=1;marginBottom=0;whiteSpace=wrap;html=1;" parent="1" vertex="1">
          <mxGeometry x="-600" y="-792" width="160" height="138" as="geometry" />
        </mxCell>
        <mxCell id="gKRMEOs6aeMaTQ6uBLCG-13" value="+ Addres: String" style="text;strokeColor=none;fillColor=none;align=left;verticalAlign=top;spacingLeft=4;spacingRight=4;overflow=hidden;rotatable=0;points=[[0,0.5],[1,0.5]];portConstraint=eastwest;whiteSpace=wrap;html=1;" parent="gKRMEOs6aeMaTQ6uBLCG-12" vertex="1">
          <mxGeometry y="26" width="160" height="26" as="geometry" />
        </mxCell>
        <mxCell id="gKRMEOs6aeMaTQ6uBLCG-14" value="+ Delivery_time: Real" style="text;strokeColor=none;fillColor=none;align=left;verticalAlign=top;spacingLeft=4;spacingRight=4;overflow=hidden;rotatable=0;points=[[0,0.5],[1,0.5]];portConstraint=eastwest;whiteSpace=wrap;html=1;" parent="gKRMEOs6aeMaTQ6uBLCG-12" vertex="1">
          <mxGeometry y="52" width="160" height="26" as="geometry" />
        </mxCell>
        <mxCell id="gKRMEOs6aeMaTQ6uBLCG-15" value="- Creation_time: Real" style="text;strokeColor=none;fillColor=none;align=left;verticalAlign=top;spacingLeft=4;spacingRight=4;overflow=hidden;rotatable=0;points=[[0,0.5],[1,0.5]];portConstraint=eastwest;whiteSpace=wrap;html=1;" parent="gKRMEOs6aeMaTQ6uBLCG-12" vertex="1">
          <mxGeometry y="78" width="160" height="26" as="geometry" />
        </mxCell>
        <mxCell id="gKRMEOs6aeMaTQ6uBLCG-16" value="+ IsDelivered: Boolean" style="text;strokeColor=none;fillColor=none;align=left;verticalAlign=top;spacingLeft=4;spacingRight=4;overflow=hidden;rotatable=0;points=[[0,0.5],[1,0.5]];portConstraint=eastwest;whiteSpace=wrap;html=1;" parent="gKRMEOs6aeMaTQ6uBLCG-12" vertex="1">
          <mxGeometry y="104" width="160" height="26" as="geometry" />
        </mxCell>
        <mxCell id="gKRMEOs6aeMaTQ6uBLCG-17" value="" style="line;strokeWidth=1;fillColor=none;align=left;verticalAlign=middle;spacingTop=-1;spacingLeft=3;spacingRight=3;rotatable=0;labelPosition=right;points=[];portConstraint=eastwest;strokeColor=inherit;" parent="gKRMEOs6aeMaTQ6uBLCG-12" vertex="1">
          <mxGeometry y="130" width="160" height="8" as="geometry" />
        </mxCell>
        <mxCell id="gKRMEOs6aeMaTQ6uBLCG-18" value="" style="endArrow=block;endSize=16;endFill=0;html=1;rounded=0;entryX=0;entryY=0.5;entryDx=0;entryDy=0;exitX=1;exitY=0.403;exitDx=0;exitDy=0;exitPerimeter=0;" parent="1" source="gKRMEOs6aeMaTQ6uBLCG-10" target="gKRMEOs6aeMaTQ6uBLCG-3" edge="1">
          <mxGeometry width="160" relative="1" as="geometry">
            <mxPoint x="-210" y="-750" as="sourcePoint" />
            <mxPoint x="-149.51999999999998" y="-778.0699999999999" as="targetPoint" />
          </mxGeometry>
        </mxCell>
        <mxCell id="gKRMEOs6aeMaTQ6uBLCG-19" value="" style="endArrow=diamondThin;endFill=1;endSize=24;html=1;rounded=0;exitX=0.998;exitY=-0.003;exitDx=0;exitDy=0;exitPerimeter=0;" parent="1" source="gKRMEOs6aeMaTQ6uBLCG-14" edge="1">
          <mxGeometry width="160" relative="1" as="geometry">
            <mxPoint x="-420" y="-740" as="sourcePoint" />
            <mxPoint x="-380" y="-741" as="targetPoint" />
          </mxGeometry>
        </mxCell>
        <mxCell id="gKRMEOs6aeMaTQ6uBLCG-20" value="Review" style="swimlane;fontStyle=1;align=center;verticalAlign=top;childLayout=stackLayout;horizontal=1;startSize=26;horizontalStack=0;resizeParent=1;resizeParentMax=0;resizeLast=0;collapsible=1;marginBottom=0;whiteSpace=wrap;html=1;" parent="1" vertex="1">
          <mxGeometry x="-380" y="-938" width="160" height="86" as="geometry" />
        </mxCell>
        <mxCell id="gKRMEOs6aeMaTQ6uBLCG-21" value="+ Info: String" style="text;strokeColor=none;fillColor=none;align=left;verticalAlign=top;spacingLeft=4;spacingRight=4;overflow=hidden;rotatable=0;points=[[0,0.5],[1,0.5]];portConstraint=eastwest;whiteSpace=wrap;html=1;" parent="gKRMEOs6aeMaTQ6uBLCG-20" vertex="1">
          <mxGeometry y="26" width="160" height="26" as="geometry" />
        </mxCell>
        <mxCell id="gKRMEOs6aeMaTQ6uBLCG-22" value="+ Stars: UnlimitedNatural" style="text;strokeColor=none;fillColor=none;align=left;verticalAlign=top;spacingLeft=4;spacingRight=4;overflow=hidden;rotatable=0;points=[[0,0.5],[1,0.5]];portConstraint=eastwest;whiteSpace=wrap;html=1;" parent="gKRMEOs6aeMaTQ6uBLCG-20" vertex="1">
          <mxGeometry y="52" width="160" height="26" as="geometry" />
        </mxCell>
        <mxCell id="gKRMEOs6aeMaTQ6uBLCG-23" value="" style="line;strokeWidth=1;fillColor=none;align=left;verticalAlign=middle;spacingTop=-1;spacingLeft=3;spacingRight=3;rotatable=0;labelPosition=right;points=[];portConstraint=eastwest;strokeColor=inherit;" parent="gKRMEOs6aeMaTQ6uBLCG-20" vertex="1">
          <mxGeometry y="78" width="160" height="8" as="geometry" />
        </mxCell>
        <mxCell id="gKRMEOs6aeMaTQ6uBLCG-24" value="Product" style="swimlane;fontStyle=1;align=center;verticalAlign=top;childLayout=stackLayout;horizontal=1;startSize=26;horizontalStack=0;resizeParent=1;resizeParentMax=0;resizeLast=0;collapsible=1;marginBottom=0;whiteSpace=wrap;html=1;" parent="1" vertex="1">
          <mxGeometry x="-820" y="-852" width="160" height="138" as="geometry" />
        </mxCell>
        <mxCell id="gKRMEOs6aeMaTQ6uBLCG-25" value="+ Cost: Real" style="text;strokeColor=none;fillColor=none;align=left;verticalAlign=top;spacingLeft=4;spacingRight=4;overflow=hidden;rotatable=0;points=[[0,0.5],[1,0.5]];portConstraint=eastwest;whiteSpace=wrap;html=1;" parent="gKRMEOs6aeMaTQ6uBLCG-24" vertex="1">
          <mxGeometry y="26" width="160" height="26" as="geometry" />
        </mxCell>
        <mxCell id="gKRMEOs6aeMaTQ6uBLCG-26" value="+ Category: String" style="text;strokeColor=none;fillColor=none;align=left;verticalAlign=top;spacingLeft=4;spacingRight=4;overflow=hidden;rotatable=0;points=[[0,0.5],[1,0.5]];portConstraint=eastwest;whiteSpace=wrap;html=1;" parent="gKRMEOs6aeMaTQ6uBLCG-24" vertex="1">
          <mxGeometry y="52" width="160" height="26" as="geometry" />
        </mxCell>
        <mxCell id="gKRMEOs6aeMaTQ6uBLCG-27" value="+ Amount: Real" style="text;strokeColor=none;fillColor=none;align=left;verticalAlign=top;spacingLeft=4;spacingRight=4;overflow=hidden;rotatable=0;points=[[0,0.5],[1,0.5]];portConstraint=eastwest;whiteSpace=wrap;html=1;" parent="gKRMEOs6aeMaTQ6uBLCG-24" vertex="1">
          <mxGeometry y="78" width="160" height="26" as="geometry" />
        </mxCell>
        <mxCell id="gKRMEOs6aeMaTQ6uBLCG-28" value="+ Info: String" style="text;strokeColor=none;fillColor=none;align=left;verticalAlign=top;spacingLeft=4;spacingRight=4;overflow=hidden;rotatable=0;points=[[0,0.5],[1,0.5]];portConstraint=eastwest;whiteSpace=wrap;html=1;" parent="gKRMEOs6aeMaTQ6uBLCG-24" vertex="1">
          <mxGeometry y="104" width="160" height="26" as="geometry" />
        </mxCell>
        <mxCell id="gKRMEOs6aeMaTQ6uBLCG-29" value="" style="line;strokeWidth=1;fillColor=none;align=left;verticalAlign=middle;spacingTop=-1;spacingLeft=3;spacingRight=3;rotatable=0;labelPosition=right;points=[];portConstraint=eastwest;strokeColor=inherit;" parent="gKRMEOs6aeMaTQ6uBLCG-24" vertex="1">
          <mxGeometry y="130" width="160" height="8" as="geometry" />
        </mxCell>
        <mxCell id="gKRMEOs6aeMaTQ6uBLCG-30" value="Manager" style="swimlane;fontStyle=1;align=center;verticalAlign=top;childLayout=stackLayout;horizontal=1;startSize=26;horizontalStack=0;resizeParent=1;resizeParentMax=0;resizeLast=0;collapsible=1;marginBottom=0;whiteSpace=wrap;html=1;" parent="1" vertex="1">
          <mxGeometry x="-820" y="-620" width="160" height="360" as="geometry" />
        </mxCell>
        <mxCell id="gKRMEOs6aeMaTQ6uBLCG-31" value="" style="line;strokeWidth=1;fillColor=none;align=left;verticalAlign=middle;spacingTop=-1;spacingLeft=3;spacingRight=3;rotatable=0;labelPosition=right;points=[];portConstraint=eastwest;strokeColor=inherit;" parent="gKRMEOs6aeMaTQ6uBLCG-30" vertex="1">
          <mxGeometry y="26" width="160" height="8" as="geometry" />
        </mxCell>
        <mxCell id="gKRMEOs6aeMaTQ6uBLCG-32" value="+ Register_employ(job_title: String, login: String, password: String): Void" style="text;strokeColor=none;fillColor=none;align=left;verticalAlign=top;spacingLeft=4;spacingRight=4;overflow=hidden;rotatable=0;points=[[0,0.5],[1,0.5]];portConstraint=eastwest;whiteSpace=wrap;html=1;" parent="gKRMEOs6aeMaTQ6uBLCG-30" vertex="1">
          <mxGeometry y="34" width="160" height="56" as="geometry" />
        </mxCell>
        <mxCell id="gKRMEOs6aeMaTQ6uBLCG-33" value="+ Accept_order(order: Order): Boolean" style="text;strokeColor=none;fillColor=none;align=left;verticalAlign=top;spacingLeft=4;spacingRight=4;overflow=hidden;rotatable=0;points=[[0,0.5],[1,0.5]];portConstraint=eastwest;whiteSpace=wrap;html=1;" parent="gKRMEOs6aeMaTQ6uBLCG-30" vertex="1">
          <mxGeometry y="90" width="160" height="40" as="geometry" />
        </mxCell>
        <mxCell id="gKRMEOs6aeMaTQ6uBLCG-34" value="+ Edit_order(order: Order, roduct: Product[*], adress: String, delivery_time: Real): Void" style="text;strokeColor=none;fillColor=none;align=left;verticalAlign=top;spacingLeft=4;spacingRight=4;overflow=hidden;rotatable=0;points=[[0,0.5],[1,0.5]];portConstraint=eastwest;whiteSpace=wrap;html=1;" parent="gKRMEOs6aeMaTQ6uBLCG-30" vertex="1">
          <mxGeometry y="130" width="160" height="70" as="geometry" />
        </mxCell>
        <mxCell id="gKRMEOs6aeMaTQ6uBLCG-35" value="+ Add_product(cost: Real, Category: String, Count: Real, info: String): Product" style="text;strokeColor=none;fillColor=none;align=left;verticalAlign=top;spacingLeft=4;spacingRight=4;overflow=hidden;rotatable=0;points=[[0,0.5],[1,0.5]];portConstraint=eastwest;whiteSpace=wrap;html=1;" parent="gKRMEOs6aeMaTQ6uBLCG-30" vertex="1">
          <mxGeometry y="200" width="160" height="50" as="geometry" />
        </mxCell>
        <mxCell id="gKRMEOs6aeMaTQ6uBLCG-36" value="+ Delete_product(product: Product): Void" style="text;strokeColor=none;fillColor=none;align=left;verticalAlign=top;spacingLeft=4;spacingRight=4;overflow=hidden;rotatable=0;points=[[0,0.5],[1,0.5]];portConstraint=eastwest;whiteSpace=wrap;html=1;" parent="gKRMEOs6aeMaTQ6uBLCG-30" vertex="1">
          <mxGeometry y="250" width="160" height="40" as="geometry" />
        </mxCell>
        <mxCell id="gKRMEOs6aeMaTQ6uBLCG-37" value="+ Edit_product(product: Product, cost: Real, Category: String, Count: Real, info: String): Product" style="text;strokeColor=none;fillColor=none;align=left;verticalAlign=top;spacingLeft=4;spacingRight=4;overflow=hidden;rotatable=0;points=[[0,0.5],[1,0.5]];portConstraint=eastwest;whiteSpace=wrap;html=1;" parent="gKRMEOs6aeMaTQ6uBLCG-30" vertex="1">
          <mxGeometry y="290" width="160" height="70" as="geometry" />
        </mxCell>
        <mxCell id="gKRMEOs6aeMaTQ6uBLCG-38" value="Courier" style="swimlane;fontStyle=1;align=center;verticalAlign=top;childLayout=stackLayout;horizontal=1;startSize=26;horizontalStack=0;resizeParent=1;resizeParentMax=0;resizeLast=0;collapsible=1;marginBottom=0;whiteSpace=wrap;html=1;" parent="1" vertex="1">
          <mxGeometry x="-600" y="-620" width="160" height="130" as="geometry" />
        </mxCell>
        <mxCell id="gKRMEOs6aeMaTQ6uBLCG-39" value="- Car: String" style="text;strokeColor=none;fillColor=none;align=left;verticalAlign=top;spacingLeft=4;spacingRight=4;overflow=hidden;rotatable=0;points=[[0,0.5],[1,0.5]];portConstraint=eastwest;whiteSpace=wrap;html=1;" parent="gKRMEOs6aeMaTQ6uBLCG-38" vertex="1">
          <mxGeometry y="26" width="160" height="26" as="geometry" />
        </mxCell>
        <mxCell id="gKRMEOs6aeMaTQ6uBLCG-40" value="+ District: String" style="text;strokeColor=none;fillColor=none;align=left;verticalAlign=top;spacingLeft=4;spacingRight=4;overflow=hidden;rotatable=0;points=[[0,0.5],[1,0.5]];portConstraint=eastwest;whiteSpace=wrap;html=1;" parent="gKRMEOs6aeMaTQ6uBLCG-38" vertex="1">
          <mxGeometry y="52" width="160" height="26" as="geometry" />
        </mxCell>
        <mxCell id="gKRMEOs6aeMaTQ6uBLCG-41" value="" style="line;strokeWidth=1;fillColor=none;align=left;verticalAlign=middle;spacingTop=-1;spacingLeft=3;spacingRight=3;rotatable=0;labelPosition=right;points=[];portConstraint=eastwest;strokeColor=inherit;" parent="gKRMEOs6aeMaTQ6uBLCG-38" vertex="1">
          <mxGeometry y="78" width="160" height="8" as="geometry" />
        </mxCell>
        <mxCell id="gKRMEOs6aeMaTQ6uBLCG-42" value="+ Delivered(order: Order): Boolean" style="text;strokeColor=none;fillColor=none;align=left;verticalAlign=top;spacingLeft=4;spacingRight=4;overflow=hidden;rotatable=0;points=[[0,0.5],[1,0.5]];portConstraint=eastwest;whiteSpace=wrap;html=1;" parent="gKRMEOs6aeMaTQ6uBLCG-38" vertex="1">
          <mxGeometry y="86" width="160" height="44" as="geometry" />
        </mxCell>
        <mxCell id="gKRMEOs6aeMaTQ6uBLCG-43" value="" style="endArrow=block;endSize=16;endFill=0;html=1;rounded=0;exitX=1.002;exitY=1.024;exitDx=0;exitDy=0;entryX=-0.003;entryY=0.708;entryDx=0;entryDy=0;entryPerimeter=0;exitPerimeter=0;" parent="1" source="gKRMEOs6aeMaTQ6uBLCG-34" target="gKRMEOs6aeMaTQ6uBLCG-51" edge="1">
          <mxGeometry width="160" relative="1" as="geometry">
            <mxPoint x="-570" y="-1000" as="sourcePoint" />
            <mxPoint x="-260" y="-440" as="targetPoint" />
          </mxGeometry>
        </mxCell>
        <mxCell id="gKRMEOs6aeMaTQ6uBLCG-44" value="" style="endArrow=open;endSize=12;dashed=1;html=1;rounded=0;entryX=0.002;entryY=0.253;entryDx=0;entryDy=0;exitX=0.75;exitY=0;exitDx=0;exitDy=0;entryPerimeter=0;" parent="1" source="gKRMEOs6aeMaTQ6uBLCG-30" target="gKRMEOs6aeMaTQ6uBLCG-16" edge="1">
          <mxGeometry width="160" relative="1" as="geometry">
            <mxPoint x="-720" y="-753" as="sourcePoint" />
            <mxPoint x="-506" y="-280" as="targetPoint" />
            <Array as="points">
              <mxPoint x="-700" y="-680" />
            </Array>
          </mxGeometry>
        </mxCell>
        <mxCell id="gKRMEOs6aeMaTQ6uBLCG-45" value="" style="endArrow=open;endSize=12;dashed=1;html=1;rounded=0;exitX=0.5;exitY=0;exitDx=0;exitDy=0;entryX=0.5;entryY=1;entryDx=0;entryDy=0;" parent="1" source="gKRMEOs6aeMaTQ6uBLCG-38" target="gKRMEOs6aeMaTQ6uBLCG-12" edge="1">
          <mxGeometry width="160" relative="1" as="geometry">
            <mxPoint x="-746.36" y="-990" as="sourcePoint" />
            <mxPoint x="-400" y="-610" as="targetPoint" />
          </mxGeometry>
        </mxCell>
        <mxCell id="gKRMEOs6aeMaTQ6uBLCG-46" value="&lt;i&gt;Employ&lt;/i&gt;" style="swimlane;fontStyle=1;align=center;verticalAlign=top;childLayout=stackLayout;horizontal=1;startSize=26;horizontalStack=0;resizeParent=1;resizeParentMax=0;resizeLast=0;collapsible=1;marginBottom=0;whiteSpace=wrap;html=1;" parent="1" vertex="1">
          <mxGeometry x="-170" y="-560" width="160" height="152" as="geometry" />
        </mxCell>
        <mxCell id="gKRMEOs6aeMaTQ6uBLCG-47" value="- Login: String" style="text;strokeColor=none;fillColor=none;align=left;verticalAlign=top;spacingLeft=4;spacingRight=4;overflow=hidden;rotatable=0;points=[[0,0.5],[1,0.5]];portConstraint=eastwest;whiteSpace=wrap;html=1;" parent="gKRMEOs6aeMaTQ6uBLCG-46" vertex="1">
          <mxGeometry y="26" width="160" height="26" as="geometry" />
        </mxCell>
        <mxCell id="gKRMEOs6aeMaTQ6uBLCG-48" value="- Password: String" style="text;strokeColor=none;fillColor=none;align=left;verticalAlign=top;spacingLeft=4;spacingRight=4;overflow=hidden;rotatable=0;points=[[0,0.5],[1,0.5]];portConstraint=eastwest;whiteSpace=wrap;html=1;" parent="gKRMEOs6aeMaTQ6uBLCG-46" vertex="1">
          <mxGeometry y="52" width="160" height="26" as="geometry" />
        </mxCell>
        <mxCell id="gKRMEOs6aeMaTQ6uBLCG-49" value="- JobTitle: String" style="text;strokeColor=none;fillColor=none;align=left;verticalAlign=top;spacingLeft=4;spacingRight=4;overflow=hidden;rotatable=0;points=[[0,0.5],[1,0.5]];portConstraint=eastwest;whiteSpace=wrap;html=1;" parent="gKRMEOs6aeMaTQ6uBLCG-46" vertex="1">
          <mxGeometry y="78" width="160" height="26" as="geometry" />
        </mxCell>
        <mxCell id="gKRMEOs6aeMaTQ6uBLCG-50" value="" style="line;strokeWidth=1;fillColor=none;align=left;verticalAlign=middle;spacingTop=-1;spacingLeft=3;spacingRight=3;rotatable=0;labelPosition=right;points=[];portConstraint=eastwest;strokeColor=inherit;" parent="gKRMEOs6aeMaTQ6uBLCG-46" vertex="1">
          <mxGeometry y="104" width="160" height="8" as="geometry" />
        </mxCell>
        <mxCell id="gKRMEOs6aeMaTQ6uBLCG-51" value="+ Singin(login: String, password: String): Void" style="text;strokeColor=none;fillColor=none;align=left;verticalAlign=top;spacingLeft=4;spacingRight=4;overflow=hidden;rotatable=0;points=[[0,0.5],[1,0.5]];portConstraint=eastwest;whiteSpace=wrap;html=1;" parent="gKRMEOs6aeMaTQ6uBLCG-46" vertex="1">
          <mxGeometry y="112" width="160" height="40" as="geometry" />
        </mxCell>
        <mxCell id="gKRMEOs6aeMaTQ6uBLCG-52" value="" style="endArrow=block;endSize=16;endFill=0;html=1;rounded=0;entryX=-0.003;entryY=0.148;entryDx=0;entryDy=0;entryPerimeter=0;exitX=1.002;exitY=0.897;exitDx=0;exitDy=0;exitPerimeter=0;" parent="1" source="gKRMEOs6aeMaTQ6uBLCG-41" target="gKRMEOs6aeMaTQ6uBLCG-46" edge="1">
          <mxGeometry width="160" relative="1" as="geometry">
            <mxPoint x="-440" y="-540" as="sourcePoint" />
            <mxPoint x="-170" y="-590" as="targetPoint" />
          </mxGeometry>
        </mxCell>
        <mxCell id="gKRMEOs6aeMaTQ6uBLCG-53" value="" style="endArrow=block;endSize=16;endFill=0;html=1;rounded=0;exitX=0.5;exitY=0;exitDx=0;exitDy=0;entryX=0.5;entryY=1;entryDx=0;entryDy=0;" parent="1" source="gKRMEOs6aeMaTQ6uBLCG-46" target="gKRMEOs6aeMaTQ6uBLCG-2" edge="1">
          <mxGeometry width="160" relative="1" as="geometry">
            <mxPoint x="-70" y="-540" as="sourcePoint" />
            <mxPoint x="-80" y="-650" as="targetPoint" />
          </mxGeometry>
        </mxCell>
        <mxCell id="gKRMEOs6aeMaTQ6uBLCG-54" value="" style="endArrow=open;endSize=12;dashed=1;html=1;rounded=0;entryX=0.5;entryY=1;entryDx=0;entryDy=0;exitX=0.5;exitY=0;exitDx=0;exitDy=0;" parent="1" source="gKRMEOs6aeMaTQ6uBLCG-8" target="gKRMEOs6aeMaTQ6uBLCG-20" edge="1">
          <mxGeometry width="160" relative="1" as="geometry">
            <mxPoint x="-280" y="-800" as="sourcePoint" />
            <mxPoint x="-260" y="-830" as="targetPoint" />
          </mxGeometry>
        </mxCell>
        <mxCell id="gKRMEOs6aeMaTQ6uBLCG-55" value="" style="endArrow=none;html=1;rounded=0;exitX=0.5;exitY=0;exitDx=0;exitDy=0;entryX=0;entryY=0.25;entryDx=0;entryDy=0;" parent="1" source="gKRMEOs6aeMaTQ6uBLCG-12" target="gKRMEOs6aeMaTQ6uBLCG-20" edge="1">
          <mxGeometry width="50" height="50" relative="1" as="geometry">
            <mxPoint x="-740" y="-618" as="sourcePoint" />
            <mxPoint x="-410" y="-870" as="targetPoint" />
            <Array as="points">
              <mxPoint x="-520" y="-916" />
            </Array>
          </mxGeometry>
        </mxCell>
        <mxCell id="gKRMEOs6aeMaTQ6uBLCG-57" value="" style="endArrow=diamondThin;endFill=0;endSize=24;html=1;rounded=0;exitX=0.5;exitY=1;exitDx=0;exitDy=0;entryX=0.5;entryY=0;entryDx=0;entryDy=0;" parent="1" source="gKRMEOs6aeMaTQ6uBLCG-24" target="gKRMEOs6aeMaTQ6uBLCG-30" edge="1">
          <mxGeometry width="160" relative="1" as="geometry">
            <mxPoint x="-460" y="-650" as="sourcePoint" />
            <mxPoint x="-300" y="-650" as="targetPoint" />
          </mxGeometry>
        </mxCell>
        <mxCell id="gKRMEOs6aeMaTQ6uBLCG-58" value="" style="endArrow=diamondThin;endFill=0;endSize=24;html=1;rounded=0;exitX=1;exitY=0.5;exitDx=0;exitDy=0;entryX=0.004;entryY=0.176;entryDx=0;entryDy=0;entryPerimeter=0;" parent="1" source="gKRMEOs6aeMaTQ6uBLCG-28" target="gKRMEOs6aeMaTQ6uBLCG-14" edge="1">
          <mxGeometry width="160" relative="1" as="geometry">
            <mxPoint x="-620" y="-810" as="sourcePoint" />
            <mxPoint x="-460" y="-810" as="targetPoint" />
          </mxGeometry>
        </mxCell>
        <mxCell id="gKRMEOs6aeMaTQ6uBLCG-59" value="" style="endArrow=diamondThin;endFill=0;endSize=24;html=1;rounded=0;entryX=0.5;entryY=0;entryDx=0;entryDy=0;exitX=0.999;exitY=0.159;exitDx=0;exitDy=0;exitPerimeter=0;" parent="1" source="gKRMEOs6aeMaTQ6uBLCG-24" target="gKRMEOs6aeMaTQ6uBLCG-2" edge="1">
          <mxGeometry width="160" relative="1" as="geometry">
            <mxPoint x="-650" y="-820" as="sourcePoint" />
            <mxPoint x="-80" y="-806" as="targetPoint" />
            <Array as="points">
              <mxPoint x="-90" y="-830" />
            </Array>
          </mxGeometry>
        </mxCell>
      </root>
    </mxGraphModel>
  </diagram>
</mxfile>
